<svg fill="#fff" xmlns="http://www.w3.org/2000/svg" viewBox="0 0 512 512"><path d="M240.954 329.111a11.603 11.603 0 00-16.454-.023l-43.136 43.171h-30.092c-6.435 0-11.636 5.213-11.636 11.648v23.284h-23.273c-6.435 0-11.636 5.213-11.636 11.648v23.284H81.455c-6.423 0-11.636 5.213-11.636 11.648v30.115l-4.817 4.818H23.273v-41.751l194.397-194.56c4.55-4.538 4.55-11.916.012-16.465l-3.409-3.421c-3.107-3.095-4.806-7.215-4.806-11.602v-.047c0-6.435-5.201-11.625-11.636-11.625s-11.636 5.236-11.636 11.671c0 8.297 2.525 16.209 7.215 22.842L3.409 433.896A11.635 11.635 0 000 442.135v58.228c0 6.423 5.213 11.636 11.636 11.636h58.182c3.084 0 6.051-1.233 8.227-3.409l11.636-11.648a11.624 11.624 0 003.409-8.227v-23.284h23.273c6.435 0 11.636-5.213 11.636-11.648v-23.284h23.273c6.435 0 11.636-5.213 11.636-11.648v-23.284h23.273c3.095 0 6.051-1.233 8.227-3.409l46.545-46.58c4.551-4.552 4.551-11.918.001-16.467zm180.364-192.152l-46.545-46.58c-13.708-13.743-37.655-13.743-51.363 0-14.161 14.173-14.161 37.236 0 51.398l46.545 46.58c6.854 6.865 15.977 10.647 25.681 10.647 9.705 0 18.828-3.782 25.681-10.647 14.162-14.173 14.162-37.236.001-51.398zm-16.454 34.921c-4.934 4.934-13.521 4.934-18.455 0l-46.545-46.58c-5.073-5.085-5.073-13.37 0-18.467 2.467-2.467 5.737-3.828 9.228-3.828s6.761 1.361 9.228 3.828l46.545 46.58c5.084 5.085 5.084 13.382-.001 18.467z"/><path d="M500.364 146.187L365.545 11.263c-15.023-15.011-41.158-15.023-56.18 0L197.818 122.891c-7.505 7.505-11.636 17.489-11.636 28.113 0 10.624 4.131 20.608 11.636 28.113l111.546 111.628-6.842 6.854a16.296 16.296 0 01-11.59 4.806h-.012a16.341 16.341 0 01-11.625-4.817l-32.524-32.547a11.623 11.623 0 00-16.454 0l-64 64.047c-4.55 4.55-4.55 11.916 0 16.465 2.269 2.269 5.248 3.409 8.227 3.409s5.958-1.14 8.227-3.409l55.773-55.808 24.297 24.308c7.505 7.505 17.466 11.636 28.09 11.636h.035c10.589-.012 20.538-4.154 28.009-11.636l15.069-15.081c4.55-4.55 4.55-11.916 0-16.465L214.272 162.641c-3.119-3.107-4.817-7.238-4.817-11.636 0-4.399 1.699-8.529 4.817-11.648L325.818 27.74c6.225-6.237 17.047-6.225 23.273 0L483.91 162.664c3.119 3.107 4.818 7.238 4.818 11.636s-1.699 8.529-4.818 11.648L372.364 297.564c-3.119 3.119-7.238 4.829-11.636 4.829-6.435 0-11.636 5.213-11.636 11.648s5.201 11.648 11.636 11.648c10.601 0 20.585-4.131 28.09-11.648l111.546-111.628C507.869 194.908 512 184.924 512 174.3c0-10.635-4.131-20.619-11.636-28.113z"/></svg>