<svg fill="#fff" xmlns="http://www.w3.org/2000/svg" viewBox="0 0 512.002 512.002"><path d="M288.265 380.223l-6.303-1.278a32.654 32.654 0 01-25.562-25.562l-1.278-6.304c-1.474-7.264-7.678-12.338-15.091-12.338s-13.617 5.073-15.091 12.339l-1.278 6.303a32.652 32.652 0 01-25.562 25.562l-6.303 1.279c-7.264 1.473-12.339 7.678-12.339 15.091 0 7.412 5.074 13.617 12.339 15.091l6.303 1.278a32.652 32.652 0 0125.562 25.562l1.278 6.304c1.474 7.264 7.678 12.338 15.091 12.338s13.617-5.073 15.091-12.338l1.278-6.304a32.652 32.652 0 0125.562-25.562l6.303-1.278c7.264-1.473 12.339-7.678 12.339-15.091 0-7.412-5.074-13.619-12.339-15.092zm-2.897 15.229a1.138 1.138 0 01-.127.034l-6.303 1.278a47.85 47.85 0 00-37.456 37.456l-1.278 6.303a1.322 1.322 0 01-.031.127.727.727 0 01-.279 0 1.127 1.127 0 01-.031-.127l-1.278-6.304a47.849 47.849 0 00-37.457-37.456l-6.303-1.278a1.713 1.713 0 01-.127-.031.727.727 0 010-.279.943.943 0 01.127-.031l6.303-1.279a47.849 47.849 0 0037.457-37.456l1.278-6.303c.011-.054.022-.096.031-.127a.727.727 0 01.279 0c.009.03.021.072.031.127l1.278 6.303a47.849 47.849 0 0037.456 37.456l6.303 1.278c.054.011.095.022.127.031a.722.722 0 010 .278zm105.93 12.471a7.612 7.612 0 00-7.611 7.611v20.609a7.612 7.612 0 0015.222 0v-20.609a7.612 7.612 0 00-7.611-7.611zm0 55.483a7.612 7.612 0 00-7.611 7.611v20.609a7.612 7.612 0 0015.222 0v-20.609a7.612 7.612 0 00-7.611-7.611zm38.047-17.438h-20.609a7.612 7.612 0 000 15.222h20.609a7.612 7.612 0 000-15.222zm-55.484 0h-20.609a7.612 7.612 0 000 15.222h20.609a7.612 7.612 0 000-15.222zM45.657 312.019a7.612 7.612 0 00-7.611 7.611v20.609a7.61 7.61 0 1015.222 0V319.63a7.61 7.61 0 00-7.611-7.611zm0 55.484a7.612 7.612 0 00-7.611 7.611v20.609a7.61 7.61 0 1015.222 0v-20.609a7.61 7.61 0 00-7.611-7.611zm38.047-17.437H63.095a7.61 7.61 0 100 15.222h20.609a7.612 7.612 0 000-15.222zm-55.484 0H7.611a7.61 7.61 0 100 15.222H28.22a7.61 7.61 0 100-15.222zM392.284 14.471a7.612 7.612 0 00-7.611 7.611v20.609a7.612 7.612 0 0015.222 0V22.083a7.61 7.61 0 00-7.611-7.612zm0 55.484a7.612 7.612 0 00-7.611 7.611v20.609a7.61 7.61 0 0015.222-.001V77.567a7.61 7.61 0 00-7.611-7.612zm38.047-17.438h-20.609a7.61 7.61 0 100 15.222h20.609a7.61 7.61 0 100-15.222zm-55.484 0h-20.609a7.61 7.61 0 100 15.222h20.609a7.612 7.612 0 000-15.222zm-84.683 66.364l-30.171-6.117a67.767 67.767 0 01-53.048-53.048l-6.117-30.17c-2.035-10.038-10.283-16.782-20.525-16.782-10.241 0-18.491 6.745-20.526 16.782l-6.117 30.17a67.767 67.767 0 01-53.048 53.048l-30.17 6.117c-10.038 2.035-16.782 10.284-16.782 20.525 0 10.242 6.745 18.491 16.782 20.525l30.17 6.116a67.767 67.767 0 0153.048 53.048l6.117 30.17c2.035 10.038 10.284 16.782 20.526 16.782s18.49-6.745 20.525-16.782l6.117-30.17a67.766 67.766 0 0153.048-53.048l30.171-6.116c10.038-2.035 16.782-10.284 16.782-20.525 0-10.24-6.744-18.489-16.782-20.525zm-3.024 26.132l-30.17 6.117a82.96 82.96 0 00-64.943 64.943l-6.117 30.17c-.863 4.253-4.509 4.584-5.606 4.584s-4.744-.331-5.606-4.584l-6.117-30.17a82.96 82.96 0 00-64.943-64.943l-30.17-6.117c-4.253-.863-4.584-4.509-4.584-5.606s.331-4.744 4.584-5.607l30.17-6.116a82.962 82.962 0 0064.943-64.942l6.117-30.17c.863-4.253 4.509-4.584 5.606-4.584s4.743.331 5.606 4.584l6.117 30.17a82.96 82.96 0 0064.943 64.942l30.17 6.116c4.253.863 4.584 4.509 4.584 5.607 0 1.098-.331 4.744-4.584 5.606zm210.558 86.33l-23.17-4.698a50.28 50.28 0 01-39.36-39.36l-4.698-23.17c-1.707-8.421-8.901-14.303-17.493-14.303-8.593 0-15.787 5.882-17.494 14.303l-4.698 23.17a50.279 50.279 0 01-39.36 39.36l-23.17 4.698c-8.421 1.707-14.303 8.901-14.303 17.494s5.881 15.786 14.303 17.494l23.17 4.698a50.279 50.279 0 0139.36 39.359l4.698 23.17c1.708 8.421 8.901 14.303 17.495 14.303 8.593 0 15.786-5.882 17.493-14.303l4.698-23.17a50.278 50.278 0 0139.36-39.359l23.17-4.698c8.421-1.708 14.303-8.901 14.303-17.494s-5.883-15.786-14.304-17.494zm-3.026 20.068l-23.17 4.698a65.475 65.475 0 00-51.254 51.254l-4.698 23.17c-.283 1.396-1.149 2.105-2.575 2.105-1.426 0-2.292-.708-2.575-2.105l-4.698-23.17a65.473 65.473 0 00-51.254-51.254l-23.17-4.698c-1.396-.283-2.105-1.15-2.105-2.575s.708-2.292 2.105-2.575l23.17-4.698a65.474 65.474 0 0051.254-51.254l4.698-23.17c.283-1.396 1.15-2.105 2.575-2.105 1.425 0 2.292.708 2.575 2.105l4.698 23.17a65.475 65.475 0 0051.254 51.254l23.17 4.698c1.396.283 2.105 1.15 2.105 2.575s-.707 2.292-2.105 2.575z"/></svg>