<svg fill="#fff" xmlns="http://www.w3.org/2000/svg" viewBox="0 0 1417.32 1417.32"><path d="M220.25 1384.82h-23.77c-1.59-.7-3.1-1.83-4.72-2.01-45.05-4.12-79.84-26.66-109-59.84-57.16-65.01-48.78-169.69 19.16-223.4 78.65-62.16 158.06-123.37 237.2-184.87 34.83-27.05 40.71-66.95 13.56-101.68-88.55-113.29-177.58-226.2-265.95-339.61-6.73-8.66-12.19-19.76-14.09-30.46-6.37-35.89 37.26-97.17 74.45-106.57.42-.11 1.02.07 1.3-.14 2.85-2.57 7.11-4.72 8.21-7.92 7.64-22.33 22.26-37.23 44.55-45.12 3.35-1.16 6.27-4.86 8.35-8.07 5.81-9.05 9.47-20 16.76-27.47 54.62-55.54 109.92-110.45 165-165.53 33.6-33.56 71.49-33.67 105.06-.21 42.09 41.95 84.1 83.96 125.94 126.16 3.35 3.38 5.04 8.35 7.64 12.82 22.89-21.2 45.33-29.58 71.67-30.43 19.02-.6 33.46-11.97 38.64-30.61 3.21-11.55 2.5-24.23 2.89-36.45.78-24.76 9.23-46 26.52-63.99 14.62-15.18 33.39-21.48 52.79-26.91h21.13c.6.6 1.09 1.58 1.8 1.76 51.38 11.8 77.41 44.45 77.45 97.31 0 42.26-.07 84.49.03 126.75.07 24.51 19.02 44.2 43.6 45.71 22.61 1.41 44.55-17.22 46.28-41.31 1.52-21.03.56-42.19 1.27-63.29.35-10.46.46-21.27 3.1-31.31 11.76-44.87 54.03-73.12 98.51-66.81 44.45 6.34 76.57 43.67 76.71 89.7.18 58.99-.1 117.95.14 176.94.1 27.15 17.54 45.43 44.13 47.76 8.7.74 17.5 1.97 25.85 4.37 41.74 11.87 64.94 44.17 65.01 90.69.14 123.69.53 247.35-.39 371.04-.14 21.7 4.79 37.54 21.34 52.79 32.12 29.62 31.7 68.85 1.13 99.71-56.39 56.91-113.09 113.48-170 169.83-6.02 5.95-13.91 11.23-21.91 13.67-7.26 2.22-9.9 5.6-13.42 11.94-6.45 11.62-13.7 24.55-24.2 31.8-14.12 9.76-30.57 15.39-34.2 35.18-.6 3.35-4.75 6.16-7.54 8.98-10.21 10.32-20.39 20.67-30.82 30.78-28.07 27.19-61.92 29.41-92.56 5.42-110.41-86.46-221.35-172.29-330.6-260.2-41.1-33.07-85.44-25.43-112.39 10.25-52.69 69.84-107.31 138.2-160.6 207.58-23.53 30.64-47.76 60.19-85.65 73.54-14.65 5.18-30.22 7.89-45.36 11.73zM570.26 219.09c-9.61 10-18.88 19.93-28.53 29.51-11.45 11.34-24.02 12.12-33.53 2.5-9.19-9.26-8.17-22.26 3.1-33.6 9.54-9.61 19.51-18.84 28.07-27.08-11.59-11.97-21.87-22.58-32.93-33.99-15.99 16.1-32.37 32.61-48.81 49.06-25.18 25.22-50.26 50.57-75.69 75.55-14.37 14.09-36.17 9.51-38.67-8.88-1.02-7.47 4.19-17.93 9.9-23.81 37.37-38.57 75.65-76.21 113.62-114.22 3.28-3.28 6.41-6.69 9.61-10.07-2.43-2.61-3.87-4.26-5.42-5.81-23.49-23.84-30.01-23.84-53.78-.11-51.98 51.98-103.97 103.93-155.92 155.95-2.99 3.03-5.78 6.27-7.68 8.38 297.99 298.03 595.1 595.21 892.32 892.46 58.29-57.94 117.35-116.36 175.96-175.25 8.42-8.45 7.5-19.55.88-29.09-4.86-7.01-11.16-12.96-17.36-20-43.36 43.46-84.31 84.6-125.38 125.7-12.15 12.15-24.86 13.45-34.51 3.87-9.61-9.58-8.35-22.36 3.77-34.52 37.93-38 75.93-75.97 113.9-113.93 3.31-3.31 6.52-6.8 8.98-9.4-10.85-11.66-20.92-22.51-31.98-34.41-10.57 10.92-20.36 21.7-30.82 31.7-10.92 10.42-23.39 10.18-32.47.25-8.7-9.51-8.45-20.92 2.22-31.45 10.21-10.07 21.52-19.02 32.58-28.63-13.88-13.45-24.27-23.53-37.44-36.28-2.18 3.35-4.26 7.96-7.61 11.41-17.22 17.64-34.51 35.22-52.23 52.34-12.29 11.87-28.1 10.46-35.78-2.92-6.41-11.23-2.68-20.92 6.06-29.51 20.32-20 40.47-40.15 59.91-59.49-22.01-21.98-43.04-42.97-64.63-64.56-2.4 2.25-5.92 5.46-9.3 8.8-28.03 27.96-55.96 56.07-84.14 83.93-9.61 9.51-23.32 10-31.84 1.87-9.02-8.63-8.59-22.58 1.41-32.72 19.79-20.04 39.66-40.01 59.77-59.77 11.52-11.34 23.53-22.19 33.81-31.84-28.35-28.39-54.66-54.73-81.39-81.46-2.18 2.08-5.39 5-8.45 8.03-12.5 12.4-24.13 25.85-37.76 36.84-5.88 4.72-16.59 7.29-23.7 5.46-5.81-1.51-12.82-10.81-13.28-17.12-.53-7.01 4.23-15.92 9.37-21.55 14.05-15.5 29.51-29.69 41.88-41.88-11.38-12.04-21.52-22.75-32.89-34.8-2.68 3.17-5.53 7.11-8.95 10.53-42.9 43-85.79 86.01-128.83 128.87-11.97 11.9-25.39 13.03-34.73 3.49-9.65-9.9-8.31-22.26 3.98-34.55 39.16-39.27 78.33-78.54 117.67-117.6 7.43-7.4 15.64-13.98 22.54-20.08-12.22-12.78-22.51-23.53-34.94-36.52-3.06 4.12-5.53 8.45-8.88 11.87-17.29 17.57-34.58 35.11-52.3 52.27-13.42 13.03-30.68 9.51-37.16-7.08-3.95-10.14.63-17.75 7.54-24.65 20.53-20.43 41.03-40.89 60.96-60.75-27.29-27.26-53.71-53.64-82.38-82.31-1.97 2.85-4.26 7.33-7.64 10.74-27.54 27.86-55.19 55.61-83.05 83.12-12.75 12.61-27.22 12.08-36.07-.56-6.55-9.33-4.86-20.53 5.21-30.71 27.58-27.82 55.37-55.44 83.05-83.15 3.28-3.28 6.45-6.73 7.75-8.1a94277.02 94277.02 0 01-64.63-64.98c-19.72 19.9-40.43 40.89-61.21 61.77-7.78 7.82-17.19 8.91-26.59 4.19-10.04-5.04-12.85-14.55-9.97-24.69 1.44-5.11 5.6-9.83 9.47-13.77 19.69-19.97 39.69-39.62 58.96-58.78-11.06-11.49-21.13-21.84-33-34.03zM154.92 378.88c-9.33 9.86-19.2 20.46-29.27 30.85-14.55 15.04-15.21 23.6-2.29 40.08 86.89 110.66 173.7 221.39 260.83 331.84 45.4 57.55 37.19 125.03-20.82 169.83-76.53 59.13-153.06 118.3-229.07 178.14-35.89 28.25-52.58 65.47-43.43 111.4 9.83 49.38 40.85 81.89 88.19 95.02 47.97 13.31 89.28-2.18 120.27-41.77 60.19-76.85 120.8-153.38 179.72-231.18 39.13-51.63 111.51-64.52 166.2-20.11 46.07 37.4 93.19 73.54 139.86 110.24 65.33 51.35 130.63 102.7 196.03 154.01 11.13 8.73 23.1 9.47 32.3 1.09 12.61-11.48 24.55-23.74 35.96-34.87-298.15-298.2-595.3-595.34-894.48-894.57zm1129.55 487.4c0-121.65.32-242.63-.28-363.57-.1-22.4-20.32-42.16-41.49-42.05-53.53.25-95.8-41.49-93.58-97.98 2.22-56.25.74-112.67.35-168.98-.18-28.18-20.36-49.31-46.03-49.52-26.31-.21-45.86 21.24-45.93 50.43-.03 22.43.35 44.9-.1 67.34-1.06 53.92-55.75 96.01-107.91 83.26-44.66-10.88-71.32-45.36-71.6-93.05-.21-42.69-.03-85.37-.07-128.06 0-26.17-17.64-45.82-41.74-46.63-27.89-.92-46.98 16.31-48.5 43.95-.35 6.59-.1 13.21-.25 19.79-.71 32.75-12.78 59.59-40.29 78.68-17.01 11.83-36.77 12.89-56.21 16.24-9.23 1.58-17.79 7.01-26.06 10.43 207.63 207.62 413.17 413.16 619.69 619.72zm-179.51 337.09c-3.03-4.12-7.5-12.12-13.7-18.31C809.15 902.7 526.9 620.52 244.69 338.31c-3.1-3.1-6.06-6.45-9.54-9.09-9.61-7.29-21.52-6.59-29.97 1.48-8.28 7.89-9.69 20.22-2.92 29.94 2.75 3.94 6.37 7.26 9.79 10.67 281.9 281.93 563.79 563.86 845.79 845.65 4.83 4.82 10.57 9.51 16.76 12.08 14.26 5.92 30.15-5.53 30.36-25.67z"/><path d="M806.76 768.2c-4.05-3.17-12.61-6.62-14.93-12.5-2.54-6.52-2.15-17.47 1.9-22.61 10.5-13.31 23.21-25.11 36.03-36.35 8.1-7.11 18.35-6.27 26.56.63 7.5 6.34 12.64 16.06 5.67 24.34-13.14 15.6-28.18 29.62-42.79 43.92-1.81 1.76-5.79 1.3-12.44 2.57zm189.48 188.99c.6-17.86 24.34-43.25 36.7-41.66 6.83.88 15.25 5.99 18.74 11.73 3.14 5.11 3.1 15.36-.1 20.5-5.67 9.05-13.81 17.5-22.82 23.14-5.46 3.38-15.71 3.42-21.63.49-5.82-2.9-8.89-11.39-10.89-14.2zM513.45 389.34c.25 18.35-24.55 45.01-37.76 43.53-6.52-.74-15.39-5.39-17.82-10.74-2.96-6.45-2.82-17.01.67-23.07 5.07-8.8 13.38-16.8 22.19-21.98 5.64-3.31 15.53-3.1 21.8-.42 5.67 2.4 9.02 10.29 10.92 12.68zM205 1245.07c-12.57 0-21.66-8.84-21.73-21.13-.07-12.19 9.12-21.38 21.48-21.48 12.64-.11 21.45 8.59 21.48 21.2.04 12.71-8.55 21.37-21.23 21.41z"/></svg>