<svg fill="#fff" height="512" viewBox="0 0 512 512" width="512" xmlns="http://www.w3.org/2000/svg"><path d="M495.569 2.93A10.072 10.072 0 00488.5 0L23.5.002c-5.522 0-10 4.478-10 10v80c0 5.522 4.478 10 10 10h35V412h-35c-5.522 0-10 4.478-10 10v80c0 5.522 4.478 10 10 10l465-.002c2.63 0 5.21-1.07 7.069-2.93a10.077 10.077 0 002.931-7.07v-52c0-5.51-4.49-10-10-10s-10 4.49-10 10v42h-400V20h400v339.999c0 5.51 4.49 10 10 10s10-4.49 10-10V10c0-2.63-1.07-5.21-2.931-7.07zM33.5 80.002v-60h25v60zM33.5 432h25v60h-25z"/><circle cx="488.5" cy="404.998" r="10"/><path d="M278.5 84.569c-10.946 0-20.704 5.686-26.101 15.21L116.721 339.211c-5.322 9.392-5.255 20.566.18 29.893 5.436 9.328 15.125 14.896 25.921 14.896h271.357c10.796 0 20.485-5.568 25.921-14.896 5.435-9.327 5.502-20.502.18-29.892L304.601 99.779c-5.397-9.524-15.155-15.21-26.101-15.21zm144.319 274.466c-.87 1.493-3.453 4.966-8.641 4.966H142.821c-5.188 0-7.771-3.473-8.641-4.966-.869-1.492-2.616-5.451-.06-9.964L269.8 109.638v.001c2.593-4.576 6.948-5.07 8.7-5.07s6.107.494 8.7 5.069l135.679 239.434c2.557 4.512.809 8.471-.06 9.963z"/><path d="M285.407 174.493l-60 70A10 10 0 00233 261h45l-32.882 43.842-1.667-14.809c-.618-5.488-5.574-9.428-11.057-8.818-5.488.618-9.436 5.568-8.818 11.057l4.486 39.848c.575 5.108 4.903 8.882 9.925 8.882.374 0 40.979-4.55 40.979-4.55 5.488-.618 9.436-5.568 8.818-11.057-.618-5.488-5.575-9.443-11.057-8.818l-16.832 1.896L306 257.001a10 10 0 00-8-16h-43.258l45.851-53.492c3.594-4.193 3.108-10.506-1.085-14.101-4.195-3.594-10.508-3.108-14.101 1.085z"/></svg>