<svg fill="#fff" height="512" viewBox="0 0 510.005 510.005" width="512" xmlns="http://www.w3.org/2000/svg"><path d="M134.001 360.518h15v15h-15zm82-75.518h15.2v15h-15.2zm30.401 0h15.201v15h-15.201zm30.4 0h15.2v15h-15.2z"/><path d="M366.503 180.14v-15h-43.754v47.736l-68.866-48.46-72.138 53.588h-62.239v105h14.496v22.689h15v-26.685L254 236.493l105.002 82.563v131.011h-104.1V330.189h-90.585v119.877h-15.316v-60.172h-15v75.172h240.001V323.004h15.496v-105h-22.304v-23.242h-15v23.242h-14.446V180.14zM179.317 345.189h60.585v104.877h-60.585zm195.182-37.185h-5.283l-115.213-90.591-115.275 90.591h-4.223v-75h83.241v-15h-10.848l47.222-35.079 49.849 35.079h-11.962v15h82.491v75z"/><path d="M269.302 420.013h75.033v-89.824h-75.033zm60.034-15h-15.017v-59.824h15.017zm-45.034-59.824h15.017v59.824h-15.017z"/><path d="M449.998 495.005H60.007V120.004h157.5v-15h-172.5v405.001h419.991v-30.501h-15z"/><path d="M449.998 449.504h15v15h-15zm-157.5-344.5v15h157.5v314.501h15V105.004zm-15.496 7.496c0-12.407-10.093-22.5-22.5-22.5s-22.5 10.093-22.5 22.5 10.093 22.5 22.5 22.5 22.5-10.093 22.5-22.5zm-30 0c0-4.136 3.364-7.5 7.5-7.5s7.5 3.364 7.5 7.5-3.364 7.5-7.5 7.5-7.5-3.364-7.5-7.5zm7.5-97.5c26.165 0 50.731 10.226 69.174 28.794l10.643-10.57C313.038 11.799 284.692 0 254.502 0c-29.906 0-58.062 11.609-79.281 32.688l10.571 10.642C204.183 25.061 228.584 15 254.502 15z"/><path d="M313.11 54.447C297.493 38.682 276.679 30 254.502 30c-21.885 0-42.503 8.487-58.058 23.896l10.558 10.656C219.728 51.944 236.598 45 254.502 45c18.144 0 35.173 7.104 47.95 20.003z"/><path d="M217.675 75.094l10.524 10.688C235.26 78.829 244.602 75 254.502 75c10.122 0 19.611 3.978 26.721 11.2l10.689-10.522C281.961 65.567 268.675 60 254.502 60c-13.863 0-26.942 5.36-36.827 15.094z"/></svg>