<svg xmlns="http://www.w3.org/2000/svg" viewBox="0 0 384.754 384.754"><path d="M214.86 374.508a9 9 0 01-9 9h-65.01c-4.971 0-9.223-3.57-9.223-8.541V288.87c0-4.971 4.252-9.361 9.223-9.361h99.585c4.971 0 9 4.029 9 9s-4.029 9-9 9h-90.808v68h56.232a9 9 0 019.001 8.999zm-78.21-259h10c4.971 0 9-4.029 9-9s-4.029-9-9-9h-10c-4.971 0-9 4.029-9 9s4.029 9 9 9zm44.297 0h10a9 9 0 000-18h-10c-4.971 0-9 4.029-9 9s4.029 9 9 9zm-28.891 27a9 9 0 009 9h5c4.971 0 9-4.029 9-9s-4.029-9-9-9h-5a9 9 0 00-9 9zm-24.181 78.479c6.952 11.05 21.072 18.33 36.689 18.33 15.619 0 29.74-7.282 36.691-18.332 12.326.961 24.51 6.008 33.264 13.909a9.003 9.003 0 0012.712-.651c3.33-3.69 3.038-9.536-.651-12.866-12.984-11.718-31.526-18.868-49.6-18.868h-1.237c-3.845 0-7.265 2.597-8.513 6.232-2.119 6.173-10.584 12.499-22.666 12.499-12.08 0-20.546-6.366-22.667-12.539-1.249-3.636-4.668-6.193-8.512-6.193h-1.236c-30.601 0-59.207 19.216-65.123 43.549L40.6 354.841a9.39 9.39 0 00-.255 1.402 9.04 9.04 0 001.388 5.891c1.056 1.635 2.77 2.936 4.713 3.615.342.119.181.45 1.181.528v.23h-.257c.646 0 1.293.107 1.93.107.089 0 .177-.107.266-.107h54.025c4.971 0 9-4.029 9-9s-4.029-9-9-9H60.743l23.773-97.92c3.654-15.022 22.956-27.991 43.359-29.6zm62.095 27.521c-4.971 0-9 4.029-9 9s4.029 9 9 9h31.78c4.971 0 9-4.029 9-9s-4.029-9-9-9h-31.78zM74.842 100.475a9 9 0 0112.504-9.031 76.678 76.678 0 016.628-18.336 8.973 8.973 0 01-.982-.93 9.266 9.266 0 01-.91-1.164c-.819-1.275-1.455-2.772-1.455-4.38v-.687c0-.301.07-.51.105-.802C94.772 27.947 126.077 0 163.556 0c34.778 0 64.202 23.508 71.492 57.508h24.149c4.971 0 9 4.029 9 9s-4.029 9-9 9h-25.056c2.481 5 4.362 10.481 5.62 16.11 1.31-.562 2.771-.992 4.293-.866a9.002 9.002 0 018.215 9.723l-1.17 13.92c-.417 4.952-4.763 8.622-9.723 8.215a8.923 8.923 0 01-.961-.133c-6.549 36.481-38.522 64.25-76.86 64.25-38.337 0-70.31-27.769-76.858-64.25a9.415 9.415 0 01-.961.133c-4.945.421-9.306-3.261-9.723-8.215l-1.171-13.92zm35.804-42.967h105.822c-6.838-23-28.063-39.334-52.912-39.334-24.848 0-46.073 16.334-52.91 39.334zm-7.175 51.349c0 33.132 26.955 59.957 60.086 59.957 33.132 0 60.087-26.868 60.087-60 0-12.091-3.508-23.305-10.183-33.305h-99.809c-6.675 9.999-10.181 21.256-10.181 33.348zm240.957 147.727a8.936 8.936 0 00-1.114-3.609 8.888 8.888 0 00-.579-.905l-8.921-12.739a8.997 8.997 0 00-12.534-2.21c-4.071 2.851-5.062 8.463-2.21 12.534l6.039 8.625-5.512 11.819-.01.022-5.523 12.046-13.016 1.341h-.006l-13.012.936-7.494-10.805c-.004-.005-.007-.059-.011-.064l-7.484-10.715 11.044-23.697 10.49-.924c4.952-.434 8.615-4.802 8.182-9.753-.434-4.952-4.813-8.609-9.75-8.183l-15.495 1.356a8.962 8.962 0 00-4.572 1.62 8.945 8.945 0 00-2.556 2.764 9.02 9.02 0 00-.49.947l-15.289 32.79a8.964 8.964 0 00-.884 4.755 8.953 8.953 0 001.11 3.599c.176.314.37.62.583.912l10.376 14.817.015.021 7.479 10.685-36.083 77.381a9 9 0 008.152 12.806 9.002 9.002 0 008.163-5.198l36.082-77.146 13.012-.902h.006l18.021-1.813c.358-.024.714-.188 1.064-.256 1.292-.243 2.477-.817 3.501-1.539a9.046 9.046 0 003.052-3.761l7.644-16.398.003-.009 7.644-16.396a8.983 8.983 0 00.883-4.754z"/></svg>