<svg fill="#fff" xmlns="http://www.w3.org/2000/svg" viewBox="0 0 8503.94 1417.32"><path d="M4415.19 1202.91h-6.75c-.45-.2-.88-.52-1.34-.57-12.79-1.17-22.67-7.57-30.95-16.99-16.23-18.46-13.85-48.18 5.44-63.43 22.33-17.65 44.88-35.03 67.35-52.49 9.89-7.68 11.56-19.01 3.85-28.87-25.14-32.17-50.42-64.23-75.51-96.43-1.91-2.46-3.46-5.61-4-8.65-1.81-10.19 10.58-27.59 21.14-30.26.12-.03.29.02.37-.04.81-.73 2.02-1.34 2.33-2.25 2.17-6.34 6.32-10.57 12.65-12.81.95-.33 1.78-1.38 2.37-2.29 1.65-2.57 2.69-5.68 4.76-7.8 15.51-15.77 31.21-31.36 46.85-47 9.54-9.53 20.3-9.56 29.83-.06a8626.22 8626.22 0 0135.76 35.82c.95.96 1.43 2.37 2.17 3.64 6.5-6.02 12.87-8.4 20.35-8.64 5.4-.17 9.5-3.4 10.97-8.69.91-3.28.71-6.88.82-10.35.22-7.03 2.62-13.06 7.53-18.17 4.15-4.31 9.48-6.1 14.99-7.64h6c.17.17.31.45.51.5 14.59 3.35 21.98 12.62 21.99 27.63 0 12-.02 23.99.01 35.99.02 6.96 5.4 12.55 12.38 12.98 6.42.4 12.65-4.89 13.14-11.73.43-5.97.16-11.98.36-17.97.1-2.97.13-6.04.88-8.89 3.34-12.74 15.34-20.76 27.97-18.97 12.62 1.8 21.74 12.4 21.78 25.47.05 16.75-.03 33.49.04 50.24.03 7.71 4.98 12.9 12.53 13.56 2.47.21 4.97.56 7.34 1.24 11.85 3.37 18.44 12.54 18.46 25.75.04 35.12.15 70.23-.11 105.35-.04 6.16 1.36 10.66 6.06 14.99 9.12 8.41 9 19.55.32 28.31a7078.84 7078.84 0 01-48.27 48.22c-1.71 1.69-3.95 3.19-6.22 3.88-2.06.63-2.81 1.59-3.81 3.39-1.83 3.3-3.89 6.97-6.87 9.03-4.01 2.77-8.68 4.37-9.71 9.99-.17.95-1.35 1.75-2.14 2.55-2.9 2.93-5.79 5.87-8.75 8.74-7.97 7.72-17.58 8.35-26.28 1.54-31.35-24.55-62.85-48.92-93.87-73.88-11.67-9.39-24.26-7.22-31.91 2.91-14.96 19.83-30.47 39.24-45.6 58.94-6.68 8.7-13.56 17.09-24.32 20.88-4.17 1.47-8.59 2.24-12.89 3.33zm99.38-330.99c-2.73 2.84-5.36 5.66-8.1 8.38-3.25 3.22-6.82 3.44-9.52.71-2.61-2.63-2.32-6.32.88-9.54 2.71-2.73 5.54-5.35 7.97-7.69-3.29-3.4-6.21-6.41-9.35-9.65-4.54 4.57-9.19 9.26-13.86 13.93-7.15 7.16-14.27 14.36-21.49 21.45-4.08 4-10.27 2.7-10.98-2.52-.29-2.12 1.19-5.09 2.81-6.76 10.61-10.95 21.48-21.64 32.26-32.43.93-.93 1.82-1.9 2.73-2.86-.69-.74-1.1-1.21-1.54-1.65-6.67-6.77-8.52-6.77-15.27-.03-14.76 14.76-29.52 29.51-44.27 44.28-.85.86-1.64 1.78-2.18 2.38 84.61 84.62 168.97 169 253.36 253.4 16.55-16.45 33.32-33.04 49.96-49.76 2.39-2.4 2.13-5.55.25-8.26-1.38-1.99-3.17-3.68-4.93-5.68-12.31 12.34-23.94 24.02-35.6 35.69-3.45 3.45-7.06 3.82-9.8 1.1-2.73-2.72-2.37-6.35 1.07-9.8 10.77-10.79 21.56-21.57 32.34-32.35.94-.94 1.85-1.93 2.55-2.67-3.08-3.31-5.94-6.39-9.08-9.77-3 3.1-5.78 6.16-8.75 9-3.1 2.96-6.64 2.89-9.22.07-2.47-2.7-2.4-5.94.63-8.93 2.9-2.86 6.11-5.4 9.25-8.13-3.94-3.82-6.89-6.68-10.63-10.3-.62.95-1.21 2.26-2.16 3.24-4.89 5.01-9.8 10-14.83 14.86-3.49 3.37-7.98 2.97-10.16-.83-1.82-3.19-.76-5.94 1.72-8.38 5.77-5.68 11.49-11.4 17.01-16.89-6.25-6.24-12.22-12.2-18.35-18.33-.68.64-1.68 1.55-2.64 2.5-7.96 7.94-15.89 15.92-23.89 23.83-2.73 2.7-6.62 2.84-9.04.53-2.56-2.45-2.44-6.41.4-9.29 5.62-5.69 11.26-11.36 16.97-16.97 3.27-3.22 6.68-6.3 9.6-9.04-8.05-8.06-15.52-15.54-23.11-23.13-.62.59-1.53 1.42-2.4 2.28-3.55 3.52-6.85 7.34-10.72 10.46-1.67 1.34-4.71 2.07-6.73 1.55-1.65-.43-3.64-3.07-3.77-4.86-.15-1.99 1.2-4.52 2.66-6.12 3.99-4.4 8.38-8.43 11.89-11.89-3.23-3.42-6.11-6.46-9.34-9.88-.76.9-1.57 2.02-2.54 2.99-12.18 12.21-24.36 24.42-36.58 36.59-3.4 3.38-7.21 3.7-9.86.99-2.74-2.81-2.36-6.32 1.13-9.81 11.12-11.15 22.24-22.3 33.41-33.39 2.11-2.1 4.44-3.97 6.4-5.7-3.47-3.63-6.39-6.68-9.92-10.37-.87 1.17-1.57 2.4-2.52 3.37-4.91 4.99-9.82 9.97-14.85 14.84-3.81 3.7-8.71 2.7-10.55-2.01-1.12-2.88.18-5.04 2.14-7 5.83-5.8 11.65-11.61 17.31-17.25-7.75-7.74-15.25-15.23-23.39-23.37-.56.81-1.21 2.08-2.17 3.05-7.82 7.91-15.67 15.79-23.58 23.6-3.62 3.58-7.73 3.43-10.24-.16-1.86-2.65-1.38-5.83 1.48-8.72 7.83-7.9 15.72-15.74 23.58-23.61.93-.93 1.83-1.91 2.2-2.3-6.26-6.29-12.2-12.26-18.35-18.45-5.6 5.65-11.48 11.61-17.38 17.54-2.21 2.22-4.88 2.53-7.55 1.19-2.85-1.43-3.65-4.13-2.83-7.01.41-1.45 1.59-2.79 2.69-3.91 5.59-5.67 11.27-11.25 16.74-16.69-3.14-3.26-6-6.2-9.37-9.66zm-117.93 45.37c-2.65 2.8-5.45 5.81-8.31 8.76-4.13 4.27-4.32 6.7-.65 11.38 24.67 31.42 49.32 62.86 74.06 94.22 12.89 16.34 10.56 35.5-5.91 48.22-21.73 16.79-43.46 33.59-65.04 50.58-10.19 8.02-14.93 18.59-12.33 31.63 2.79 14.02 11.6 23.25 25.04 26.98 13.62 3.78 25.35-.62 34.15-11.86 17.09-21.82 34.3-43.55 51.03-65.64 11.11-14.66 31.66-18.32 47.19-5.71 13.08 10.62 26.46 20.88 39.71 31.3 18.55 14.58 37.09 29.16 55.66 43.73 3.16 2.48 6.56 2.69 9.17.31 3.58-3.26 6.97-6.74 10.21-9.9-84.66-84.67-169.03-169.04-253.98-254zm320.72 138.39c0-34.54.09-68.89-.08-103.23-.03-6.36-5.77-11.97-11.78-11.94-15.2.07-27.2-11.78-26.57-27.82.63-15.97.21-31.99.1-47.98-.05-8-5.78-14-13.07-14.06-7.47-.06-13.02 6.03-13.04 14.32-.01 6.37.1 12.75-.03 19.12-.3 15.31-15.83 27.26-30.64 23.64-12.68-3.09-20.25-12.88-20.33-26.42-.06-12.12-.01-24.24-.02-36.36 0-7.43-5.01-13.01-11.85-13.24-7.92-.26-13.34 4.63-13.77 12.48-.1 1.87-.03 3.75-.07 5.62-.2 9.3-3.63 16.92-11.44 22.34-4.83 3.36-10.44 3.66-15.96 4.61-2.62.45-5.05 1.99-7.4 2.96 58.95 58.95 117.31 117.31 175.95 175.96zm-50.97 95.71c-.86-1.17-2.13-3.44-3.89-5.2-80.1-80.17-160.24-160.29-240.37-240.42-.88-.88-1.72-1.83-2.71-2.58-2.73-2.07-6.11-1.87-8.51.42-2.35 2.24-2.75 5.74-.83 8.5.78 1.12 1.81 2.06 2.78 3.03 80.04 80.05 160.08 160.1 240.15 240.11 1.37 1.37 3 2.7 4.76 3.43 4.05 1.68 8.56-1.57 8.62-7.29z"/><path d="M4581.72 1027.83c-1.15-.9-3.58-1.88-4.24-3.55-.72-1.85-.61-4.96.54-6.42 2.98-3.78 6.59-7.13 10.23-10.32 2.3-2.02 5.21-1.78 7.54.18 2.13 1.8 3.59 4.56 1.61 6.91-3.73 4.43-8 8.41-12.15 12.47-.51.5-1.64.37-3.53.73zm53.8 53.66c.17-5.07 6.91-12.28 10.42-11.83 1.94.25 4.33 1.7 5.32 3.33.89 1.45.88 4.36-.03 5.82-1.61 2.57-3.92 4.97-6.48 6.57-1.55.96-4.46.97-6.14.14-1.65-.82-2.52-3.23-3.09-4.03zm-137.08-161.23c.07 5.21-6.97 12.78-10.72 12.36-1.85-.21-4.37-1.53-5.06-3.05-.84-1.83-.8-4.83.19-6.55 1.44-2.5 3.8-4.77 6.3-6.24 1.6-.94 4.41-.88 6.19-.12 1.61.68 2.56 2.92 3.1 3.6zm-87.58 242.97c-3.57 0-6.15-2.51-6.17-6-.02-3.46 2.59-6.07 6.1-6.1 3.59-.03 6.09 2.44 6.1 6.02.01 3.61-2.43 6.07-6.03 6.08z"/></svg>