<svg fill="#fff" xmlns="http://www.w3.org/2000/svg" viewBox="0 0 512 512"><path d="M256 0c-83.816 0-152 68.184-152 152 0 4.424 3.576 8 8 8s8-3.576 8-8c0-74.992 61.008-136 136-136s136 61.008 136 136c0 4.424 3.576 8 8 8s8-3.576 8-8C408 68.184 339.816 0 256 0zm200 304H56c-4.424 0-8 3.576-8 8s3.576 8 8 8h400c4.424 0 8-3.576 8-8s-3.576-8-8-8zm0 168H56c-4.424 0-8 3.576-8 8s3.576 8 8 8h400c4.424 0 8-3.576 8-8s-3.576-8-8-8z"/><path d="M88 304c-4.424 0-8 3.576-8 8v168c0 4.424 3.576 8 8 8s8-3.576 8-8V312c0-4.424-3.576-8-8-8zm48 0c-4.424 0-8 3.576-8 8v168c0 4.424 3.576 8 8 8s8-3.576 8-8V312c0-4.424-3.576-8-8-8zm48 0c-4.424 0-8 3.576-8 8v168c0 4.424 3.576 8 8 8s8-3.576 8-8V312c0-4.424-3.576-8-8-8zm48 0c-4.424 0-8 3.576-8 8v168c0 4.424 3.576 8 8 8s8-3.576 8-8V312c0-4.424-3.576-8-8-8zm48 0c-4.424 0-8 3.576-8 8v168c0 4.424 3.576 8 8 8s8-3.576 8-8V312c0-4.424-3.576-8-8-8zm48 0c-4.424 0-8 3.576-8 8v168c0 4.424 3.576 8 8 8s8-3.576 8-8V312c0-4.424-3.576-8-8-8zm48 0c-4.424 0-8 3.576-8 8v168c0 4.424 3.576 8 8 8s8-3.576 8-8V312c0-4.424-3.576-8-8-8zm48 0c-4.424 0-8 3.576-8 8v168c0 4.424 3.576 8 8 8s8-3.576 8-8V312c0-4.424-3.576-8-8-8z"/><path d="M104 496c-4.416 0-8-3.584-8-8 0-4.424-3.576-8-8-8s-8 3.576-8 8c0 13.232 10.768 24 24 24 4.424 0 8-3.576 8-8s-3.576-8-8-8z"/><path d="M88 472c-4.424 0-8 3.576-8 8v8c0 4.424 3.576 8 8 8s8-3.576 8-8v-8c0-4.424-3.576-8-8-8zm336 8c-4.424 0-8 3.576-8 8 0 4.416-3.584 8-8 8-4.424 0-8 3.576-8 8s3.576 8 8 8c13.232 0 24-10.768 24-24 0-4.424-3.576-8-8-8z"/><path d="M424 472c-4.424 0-8 3.576-8 8v8c0 4.424 3.576 8 8 8s8-3.576 8-8v-8c0-4.424-3.576-8-8-8zm-16 24H104c-4.424 0-8 3.576-8 8s3.576 8 8 8h304c4.424 0 8-3.576 8-8s-3.576-8-8-8zM112 144c-4.424 0-8 3.576-8 8v160c0 4.424 3.576 8 8 8s8-3.576 8-8V152c0-4.424-3.576-8-8-8zm288 0c-4.424 0-8 3.576-8 8v160c0 4.424 3.576 8 8 8s8-3.576 8-8V152c0-4.424-3.576-8-8-8zM256 0c-4.424 0-8 3.576-8 8v104c0 4.424 3.576 8 8 8s8-3.576 8-8V8c0-4.424-3.576-8-8-8z"/><path d="M256 104c-4.424 0-8 3.576-8 8 0 74.992-61.008 136-136 136-4.424 0-8 3.576-8 8s3.576 8 8 8c83.816 0 152-68.184 152-152 0-4.424-3.576-8-8-8z"/><path d="M400 248c-74.992 0-136-61.008-136-136 0-4.424-3.576-8-8-8s-8 3.576-8 8c0 83.816 68.184 152 152 152 4.424 0 8-3.576 8-8s-3.576-8-8-8z"/><path d="M352 239.808c-4.424 0-8 3.576-8 8V312c0 4.424 3.576 8 8 8s8-3.576 8-8v-64.192c0-4.424-3.576-8-8-8zm-192 0c-4.424 0-8 3.576-8 8V312c0 4.424 3.576 8 8 8s8-3.576 8-8v-64.192c0-4.424-3.576-8-8-8zM56 240c-13.232 0-24 10.768-24 24s10.768 24 24 24 24-10.768 24-24-10.768-24-24-24zm0 32c-4.416 0-8-3.584-8-8s3.584-8 8-8 8 3.584 8 8-3.584 8-8 8zm400-32c-13.232 0-24 10.768-24 24s10.768 24 24 24 24-10.768 24-24-10.768-24-24-24zm0 32c-4.416 0-8-3.584-8-8s3.584-8 8-8 8 3.584 8 8-3.584 8-8 8z"/><path d="M56 272c-4.424 0-8 3.576-8 8v200c0 4.424 3.576 8 8 8s8-3.576 8-8V280c0-4.424-3.576-8-8-8zm400 0c-4.424 0-8 3.576-8 8v200c0 4.424 3.576 8 8 8s8-3.576 8-8V280c0-4.424-3.576-8-8-8z"/></svg>